<?xml version="1.0" standalone="no"?>
<!DOCTYPE svg PUBLIC "-//W3C//DTD SVG 20010904//EN"
 "http://www.w3.org/TR/2001/REC-SVG-20010904/DTD/svg10.dtd">
<svg version="1.0" xmlns="http://www.w3.org/2000/svg"
 width="256.000000pt" height="256.000000pt" viewBox="0 0 256.000000 256.000000"
 preserveAspectRatio="xMidYMid meet">

<g transform="translate(0.000000,256.000000) scale(0.100000,-0.100000)"
fill="#000000" stroke="none">
<path d="M609 2291 l-29 -29 0 -697 0 -697 29 -29 29 -29 560 0 559 0 27 25
c25 23 26 27 26 144 l0 119 53 30 c132 74 230 242 230 392 0 147 -96 315 -223
388 -25 14 -48 31 -52 37 -4 5 -8 81 -8 168 0 154 -1 158 -25 182 l-24 25
-561 0 -562 0 -29 -29z m251 -55 c0 -43 5 -58 25 -80 l24 -26 285 0 c284 0
285 0 312 23 22 19 28 34 32 80 l4 57 104 0 c146 0 146 -1 142 -205 l-3 -130
-25 5 c-14 3 -74 5 -135 5 -104 -1 -114 -2 -180 -35 -182 -87 -290 -291 -255
-481 25 -142 115 -267 238 -331 89 -46 221 -63 307 -39 21 5 43 8 48 4 11 -6
4 -175 -9 -206 -4 -10 -18 -23 -31 -28 -14 -5 -253 -9 -551 -9 -461 0 -530 2
-550 16 l-22 15 0 692 c0 381 4 697 8 703 12 19 34 22 135 23 l97 1 0 -54z
m648 11 c2 -23 -3 -48 -13 -63 l-15 -24 -280 0 c-277 0 -279 0 -294 22 -16 23
-22 89 -9 101 4 4 142 6 307 5 l301 -3 3 -38z m315 -350 c124 -61 206 -170
229 -305 37 -220 -94 -420 -317 -481 -137 -37 -303 15 -407 128 -74 81 -107
164 -109 277 -2 115 33 206 114 292 96 100 178 133 323 129 83 -3 99 -6 167
-40z"/>
<path d="M707 2013 c-12 -11 -8 -138 5 -151 18 -18 123 -15 142 4 18 18 22
104 6 135 -9 16 -22 19 -79 19 -37 0 -71 -3 -74 -7z m126 -78 l0 -50 -52 -3
-51 -3 0 56 0 56 51 -3 52 -3 0 -50z"/>
<path d="M933 1988 c2 -9 29 -13 87 -13 58 0 85 4 88 13 3 9 -19 12 -88 12
-69 0 -91 -3 -87 -12z"/>
<path d="M1175 1990 c-10 -17 17 -21 120 -18 68 2 100 7 103 16 5 15 -213 18
-223 2z"/>
<path d="M930 1885 c0 -13 26 -15 175 -15 149 0 175 2 175 15 0 13 -26 15
-175 15 -149 0 -175 -2 -175 -15z"/>
<path d="M719 1738 c-16 -6 -19 -17 -19 -76 0 -50 4 -73 15 -82 19 -16 117 -9
139 9 20 16 22 110 4 133 -14 18 -105 28 -139 16z m112 -32 c2 -2 2 -27 1 -56
l-4 -51 -46 3 -47 3 -3 53 -3 52 49 0 c27 0 51 -2 53 -4z"/>
<path d="M932 1708 c3 -9 35 -14 99 -16 99 -3 139 2 139 18 0 6 -49 10 -121
10 -92 0 -120 -3 -117 -12z"/>
<path d="M932 1608 c3 -8 29 -14 71 -16 55 -2 67 0 67 13 0 12 -14 15 -71 15
-52 0 -70 -3 -67 -12z"/>
<path d="M712 1457 c-9 -10 -12 -39 -10 -84 l3 -68 70 -3 c57 -2 72 0 82 14
15 20 17 112 4 133 -14 22 -133 28 -149 8z m119 -31 c2 -3 3 -25 1 -50 l-4
-46 -49 0 -49 0 0 50 0 50 48 0 c27 0 51 -2 53 -4z"/>
<path d="M937 1444 c-19 -19 1 -24 99 -24 80 0 105 3 102 13 -5 13 -188 23
-201 11z"/>
<path d="M933 1337 c-13 -21 21 -28 122 -25 73 2 110 7 112 15 5 14 -226 23
-234 10z"/>
<path d="M712 1181 c-9 -5 -12 -29 -10 -82 l3 -74 66 -3 c85 -4 99 8 99 83 0
71 -15 85 -88 85 -31 0 -63 -4 -70 -9z m118 -76 l0 -55 -50 0 -50 0 0 55 0 55
50 0 50 0 0 -55z"/>
<path d="M933 1158 c2 -8 23 -13 57 -13 34 0 55 5 58 13 3 9 -13 12 -58 12
-45 0 -61 -3 -57 -12z"/>
<path d="M1117 1164 c-16 -17 10 -24 84 -24 64 0 79 3 79 15 0 12 -15 15 -78
15 -43 0 -82 -3 -85 -6z"/>
<path d="M937 1064 c-19 -19 1 -24 99 -24 80 0 105 3 102 13 -5 13 -188 23
-201 11z"/>
<path d="M1215 1059 c-11 -16 -5 -18 88 -20 89 -2 104 1 92 20 -8 14 -172 14
-180 0z"/>
<path d="M1708 1593 l-106 -106 -61 58 -62 59 -59 -59 c-33 -33 -60 -64 -60
-70 0 -6 54 -64 120 -130 l120 -120 172 173 173 172 -65 65 -65 65 -107 -107z
m157 17 l39 -40 -152 -153 -152 -152 -100 100 c-55 55 -100 104 -100 110 0 6
18 29 40 50 l40 39 60 -59 60 -60 103 103 c56 56 107 102 112 102 6 0 29 -18
50 -40z"/>
<path d="M2013 2301 c-3 -11 -13 -21 -24 -24 -10 -3 -19 -10 -19 -17 0 -7 9
-14 19 -17 11 -3 21 -13 24 -24 7 -25 27 -25 34 0 3 11 16 22 29 25 13 4 24
11 24 16 0 5 -11 12 -24 16 -13 3 -26 14 -29 25 -7 25 -27 25 -34 0z"/>
<path d="M1920 2110 c0 -13 -7 -20 -20 -20 -11 0 -20 -7 -20 -15 0 -8 9 -15
20 -15 13 0 20 -7 20 -20 0 -11 7 -20 15 -20 8 0 15 7 15 15 0 9 11 20 25 25
14 5 25 12 25 15 0 3 -11 10 -25 15 -14 5 -25 16 -25 25 0 8 -7 15 -15 15 -8
0 -15 -9 -15 -20z"/>
<path d="M1970 1075 c0 -9 -12 -20 -26 -25 -26 -10 -25 -30 2 -30 8 0 19 -12
24 -26 11 -28 30 -24 30 6 0 11 8 20 20 22 29 4 30 22 3 26 -15 2 -23 10 -23
23 0 10 -7 19 -15 19 -8 0 -15 -7 -15 -15z"/>
<path d="M1937 603 c-4 -3 -7 -13 -7 -22 0 -8 -23 -50 -52 -94 -46 -70 -52
-85 -51 -130 1 -44 5 -55 32 -79 26 -23 41 -28 82 -28 87 0 129 39 129 120 0
52 -52 110 -99 110 -39 0 -39 13 -1 52 17 16 30 40 30 54 0 20 -5 24 -28 24
-16 0 -32 -3 -35 -7z m71 -186 c28 -26 28 -66 1 -101 -16 -20 -29 -26 -61 -26
-25 0 -49 7 -60 17 -24 21 -23 77 1 112 17 23 25 27 58 23 21 -2 48 -14 61
-25z"/>
<path d="M2196 589 c-43 -34 -58 -75 -59 -155 -1 -126 43 -186 134 -186 62 0
90 18 118 76 43 92 18 230 -48 269 -41 24 -112 22 -145 -4z m135 -45 c22 -23
24 -34 24 -114 0 -80 -2 -91 -24 -114 -34 -36 -88 -36 -121 -1 -20 21 -25 39
-28 96 -5 76 8 121 42 144 33 24 79 19 107 -11z"/>
<path d="M120 425 l0 -175 24 0 c13 0 26 6 29 14 5 12 13 11 46 -6 70 -34 144
1 171 81 12 36 11 45 -5 81 -10 23 -31 50 -46 61 -33 23 -105 25 -133 4 -32
-24 -36 -18 -36 50 0 63 -1 65 -25 65 l-25 0 0 -175z m191 22 c71 -54 38 -157
-50 -157 -32 0 -44 6 -65 31 -14 17 -26 37 -26 45 0 23 28 72 47 83 24 14 75
13 94 -2z"/>
<path d="M1100 426 l0 -176 26 0 c26 0 26 1 22 50 -3 28 -1 53 4 56 4 3 31
-20 59 -50 36 -39 58 -56 76 -56 24 0 23 2 -19 51 -23 28 -47 57 -52 64 -7 9
5 30 43 74 l53 61 -30 0 c-17 0 -32 -4 -34 -9 -6 -16 -78 -91 -89 -93 -8 -2
-12 28 -13 97 -1 96 -2 100 -23 103 l-23 3 0 -175z"/>
<path d="M514 481 c-58 -36 -71 -146 -23 -197 43 -46 129 -53 175 -15 28 23
54 74 54 106 0 97 -120 158 -206 106z m121 -37 c69 -45 38 -154 -45 -154 -48
0 -79 25 -86 71 -5 28 -1 41 21 67 30 36 70 42 110 16z"/>
<path d="M828 470 c-109 -90 -14 -258 125 -219 48 13 78 50 84 102 14 123
-115 194 -209 117z m146 -41 c33 -39 33 -69 0 -108 -20 -24 -34 -31 -63 -31
-59 0 -100 55 -80 108 25 66 100 83 143 31z"/>
</g>
</svg>
